<mxfile host="app.diagrams.net" agent="Mozilla/5.0 (Macintosh; Intel Mac OS X 10_15_7) AppleWebKit/537.36 (KHTML, like Gecko) Chrome/138.0.0.0 Safari/537.36" version="27.2.0">
  <diagram name="第 1 页" id="VPqpbL96a4dFp3oZ4WnJ">
    <mxGraphModel dx="1234" dy="770" grid="1" gridSize="10" guides="1" tooltips="1" connect="1" arrows="1" fold="1" page="1" pageScale="1" pageWidth="827" pageHeight="1169" math="0" shadow="0">
      <root>
        <mxCell id="0" />
        <mxCell id="1" parent="0" />
        <mxCell id="W_H7lGJFepsEXNjwJwad-23" style="edgeStyle=orthogonalEdgeStyle;rounded=0;hachureGap=4;orthogonalLoop=1;jettySize=auto;html=1;entryX=0;entryY=0.5;entryDx=0;entryDy=0;fontFamily=Architects Daughter;fontSource=https%3A%2F%2Ffonts.googleapis.com%2Fcss%3Ffamily%3DArchitects%2BDaughter;" edge="1" parent="1" source="W_H7lGJFepsEXNjwJwad-1" target="W_H7lGJFepsEXNjwJwad-17">
          <mxGeometry relative="1" as="geometry" />
        </mxCell>
        <mxCell id="W_H7lGJFepsEXNjwJwad-1" value="&lt;font style=&quot;font-size: 16px;&quot;&gt;CFM 7月版本&lt;/font&gt;" style="rounded=1;whiteSpace=wrap;html=1;hachureGap=4;fontFamily=Architects Daughter;fontSource=https%3A%2F%2Ffonts.googleapis.com%2Fcss%3Ffamily%3DArchitects%2BDaughter;" vertex="1" parent="1">
          <mxGeometry x="210" y="410" width="160" height="45" as="geometry" />
        </mxCell>
        <mxCell id="W_H7lGJFepsEXNjwJwad-2" value="&lt;font style=&quot;font-size: 14px;&quot;&gt;游戏版本&lt;br&gt;知识图谱&lt;/font&gt;" style="shape=cylinder3;whiteSpace=wrap;html=1;boundedLbl=1;backgroundOutline=1;size=15;hachureGap=4;fontFamily=Architects Daughter;fontSource=https%3A%2F%2Ffonts.googleapis.com%2Fcss%3Ffamily%3DArchitects%2BDaughter;" vertex="1" parent="1">
          <mxGeometry x="760" y="70" width="110" height="130" as="geometry" />
        </mxCell>
        <mxCell id="W_H7lGJFepsEXNjwJwad-3" value="&lt;b&gt;&lt;font style=&quot;font-size: 14px;&quot;&gt;第一轮搜索&lt;/font&gt;&lt;/b&gt;" style="text;html=1;align=center;verticalAlign=middle;whiteSpace=wrap;rounded=0;fontFamily=Architects Daughter;fontSource=https%3A%2F%2Ffonts.googleapis.com%2Fcss%3Ffamily%3DArchitects%2BDaughter;" vertex="1" parent="1">
          <mxGeometry x="230" y="370" width="100" height="30" as="geometry" />
        </mxCell>
        <mxCell id="W_H7lGJFepsEXNjwJwad-10" value="&lt;b&gt;&lt;font style=&quot;font-size: 17px;&quot;&gt;开始&lt;/font&gt;&lt;/b&gt;" style="ellipse;whiteSpace=wrap;html=1;aspect=fixed;hachureGap=4;fontFamily=Architects Daughter;fontSource=https%3A%2F%2Ffonts.googleapis.com%2Fcss%3Ffamily%3DArchitects%2BDaughter;" vertex="1" parent="1">
          <mxGeometry x="120" y="410" width="50" height="50" as="geometry" />
        </mxCell>
        <mxCell id="W_H7lGJFepsEXNjwJwad-17" value="" style="shape=document;whiteSpace=wrap;html=1;boundedLbl=1;sketch=1;hachureGap=4;jiggle=2;curveFitting=1;fontFamily=Architects Daughter;fontSource=https%3A%2F%2Ffonts.googleapis.com%2Fcss%3Ffamily%3DArchitects%2BDaughter;" vertex="1" parent="1">
          <mxGeometry x="450" y="392.5" width="120" height="80" as="geometry" />
        </mxCell>
        <mxCell id="W_H7lGJFepsEXNjwJwad-18" value="铠甲勇士&lt;br&gt;生化模式&lt;br&gt;幽灵&lt;br&gt;。。。" style="text;html=1;align=center;verticalAlign=middle;whiteSpace=wrap;rounded=0;fontFamily=Architects Daughter;fontSource=https%3A%2F%2Ffonts.googleapis.com%2Fcss%3Ffamily%3DArchitects%2BDaughter;" vertex="1" parent="1">
          <mxGeometry x="460" y="417.5" width="60" height="30" as="geometry" />
        </mxCell>
        <mxCell id="W_H7lGJFepsEXNjwJwad-19" value="" style="html=1;verticalLabelPosition=bottom;align=center;labelBackgroundColor=#ffffff;verticalAlign=top;strokeWidth=2;strokeColor=#0080F0;shadow=0;dashed=0;shape=mxgraph.ios7.icons.looking_glass;hachureGap=4;fontFamily=Architects Daughter;fontSource=https%3A%2F%2Ffonts.googleapis.com%2Fcss%3Ffamily%3DArchitects%2BDaughter;" vertex="1" parent="1">
          <mxGeometry x="320" y="375" width="20" height="20" as="geometry" />
        </mxCell>
        <mxCell id="W_H7lGJFepsEXNjwJwad-24" value="CFM铠甲勇士" style="rounded=1;whiteSpace=wrap;html=1;hachureGap=4;fontFamily=Architects Daughter;fontSource=https%3A%2F%2Ffonts.googleapis.com%2Fcss%3Ffamily%3DArchitects%2BDaughter;" vertex="1" parent="1">
          <mxGeometry x="670" y="340" width="160" height="45" as="geometry" />
        </mxCell>
        <mxCell id="W_H7lGJFepsEXNjwJwad-25" value="CFM生化模式" style="rounded=1;whiteSpace=wrap;html=1;hachureGap=4;fontFamily=Architects Daughter;fontSource=https%3A%2F%2Ffonts.googleapis.com%2Fcss%3Ffamily%3DArchitects%2BDaughter;" vertex="1" parent="1">
          <mxGeometry x="670" y="412.5" width="160" height="45" as="geometry" />
        </mxCell>
        <mxCell id="W_H7lGJFepsEXNjwJwad-26" value="CFM幽灵" style="rounded=1;whiteSpace=wrap;html=1;hachureGap=4;fontFamily=Architects Daughter;fontSource=https%3A%2F%2Ffonts.googleapis.com%2Fcss%3Ffamily%3DArchitects%2BDaughter;" vertex="1" parent="1">
          <mxGeometry x="670" y="490" width="160" height="45" as="geometry" />
        </mxCell>
        <mxCell id="W_H7lGJFepsEXNjwJwad-27" value="" style="rounded=0;whiteSpace=wrap;html=1;sketch=1;hachureGap=4;jiggle=2;curveFitting=1;fontFamily=Architects Daughter;fontSource=https%3A%2F%2Ffonts.googleapis.com%2Fcss%3Ffamily%3DArchitects%2BDaughter;dashed=1;dashPattern=8 8;fillColor=none;" vertex="1" parent="1">
          <mxGeometry x="650" y="320" width="210" height="230" as="geometry" />
        </mxCell>
        <mxCell id="W_H7lGJFepsEXNjwJwad-28" value="提炼" style="text;html=1;align=center;verticalAlign=middle;whiteSpace=wrap;rounded=0;fontFamily=Architects Daughter;fontSource=https%3A%2F%2Ffonts.googleapis.com%2Fcss%3Ffamily%3DArchitects%2BDaughter;" vertex="1" parent="1">
          <mxGeometry x="250" y="220" width="60" height="30" as="geometry" />
        </mxCell>
      </root>
    </mxGraphModel>
  </diagram>
</mxfile>
